<svg xmlns="http://www.w3.org/2000/svg" viewBox="0 0 230.79 230.79"><defs><style>.cls-1{fill:#f60;}.cls-2{fill:none;stroke:#fff;stroke-miterlimit:10;stroke-width:5px;}.cls-3{fill:#fff;}</style></defs><title>account-icon</title><g id="Capa_2" data-name="Capa 2"><g id="Capa_3" data-name="Capa 3"><circle class="cls-1" cx="115.4" cy="115.4" r="115.4"/><path class="cls-2" d="M96.7,83.62V50.12s1.5-10.5,13.75-10.25,30.5,0,30.5,0a8,8,0,0,1,5.87,8.25s-6.43-2.25-7.18,2.25l-.19,33.25Z"/><polyline class="cls-2" points="94.2 68.63 74.7 68.63 74.7 185.63 159.7 185.63 159.7 69.13 139.53 68.63"/><rect class="cls-2" x="87.53" y="96.79" width="61.67" height="15"/><rect class="cls-3" x="87.53" y="124.12" width="10.67" height="9"/><rect class="cls-3" x="106.53" y="124.12" width="10.67" height="9"/><rect class="cls-3" x="124.78" y="124.12" width="10.67" height="9"/><rect class="cls-3" x="140.28" y="124.12" width="10.67" height="9"/><rect class="cls-3" x="87.91" y="141.12" width="10.67" height="9"/><rect class="cls-3" x="106.91" y="141.12" width="10.67" height="9"/><rect class="cls-3" x="125.16" y="141.12" width="10.67" height="9"/><rect class="cls-3" x="87.53" y="156.87" width="10.67" height="9"/><rect class="cls-3" x="106.53" y="156.87" width="10.67" height="9"/><rect class="cls-3" x="124.78" y="156.87" width="10.67" height="9"/><rect class="cls-3" x="140.28" y="141.12" width="10.67" height="24.75"/></g></g></svg>