<svg xmlns="http://www.w3.org/2000/svg" viewBox="0 0 230.79 230.79"><defs><style>.cls-1{fill:#f60;}.cls-2,.cls-4,.cls-5,.cls-7{fill:none;}.cls-2{stroke:#fff;stroke-width:6px;}.cls-2,.cls-4,.cls-5,.cls-6,.cls-7{stroke-miterlimit:10;}.cls-3,.cls-6{fill:#fff;}.cls-4,.cls-5,.cls-6,.cls-7{stroke:#f60;}.cls-4{stroke-width:4px;}.cls-4,.cls-5{opacity:0.93;}.cls-5{stroke-width:3px;}</style></defs><title>backup-icon</title><g id="Capa_2" data-name="Capa 2"><g id="Capa_3" data-name="Capa 3"><circle class="cls-1" cx="115.4" cy="115.4" r="115.4"/><rect class="cls-2" x="56.36" y="53.4" width="119" height="115"/><rect class="cls-3" x="156.53" y="69.9" width="11.76" height="16.17"/><rect class="cls-3" x="156.53" y="135.57" width="11.76" height="16.17"/><polygon class="cls-3" points="64.36 62.4 159.36 62.4 159.36 67.4 152.36 67.4 152.36 90.4 159.36 90.4 159.36 132.4 152.36 132.4 152.36 154.4 159.36 154.4 159.36 160.4 65.36 160.4 64.36 62.4"/><circle class="cls-4" cx="113.95" cy="110.65" r="15.25"/><rect class="cls-3" x="141.74" y="175.53" width="18.38" height="7.25"/><rect class="cls-3" x="70.61" y="175.53" width="18.38" height="7.25"/><circle class="cls-5" cx="113.53" cy="111.07" r="22.83"/><line class="cls-6" x1="112.86" y1="135.4" x2="112.86" y2="138.4"/><line class="cls-6" x1="89.36" y1="111.9" x2="86.36" y2="111.9"/><line class="cls-6" x1="137.36" y1="111.9" x2="140.36" y2="111.9"/><line class="cls-7" x1="113.86" y1="87.4" x2="113.86" y2="84.4"/><line class="cls-7" x1="131.11" y1="94.4" x2="133.49" y2="92.28"/><line class="cls-7" x1="96.74" y1="127.4" x2="93.49" y2="130.03"/><line class="cls-7" x1="94.96" y1="90.55" x2="97.77" y2="93.19"/><line class="cls-7" x1="144.96" y1="117.55" x2="147.77" y2="120.19"/></g></g></svg>