<svg xmlns="http://www.w3.org/2000/svg" viewBox="0 0 230.79 230.79"><defs><style>.cls-1{fill:#f60;}.cls-2{fill:none;stroke:#fff;stroke-miterlimit:10;stroke-width:6px;}</style></defs><title>cash-register-icon</title><g id="Capa_2" data-name="Capa 2"><g id="Capa_3" data-name="Capa 3"><circle class="cls-1" cx="115.4" cy="115.4" r="115.4"/><rect class="cls-2" x="42.2" y="155.12" width="145" height="22"/><polygon class="cls-2" points="66.2 93.13 66.2 69.13 134.2 69.13 134.2 58.13 121.2 58.13 121.2 36.13 164.2 36.13 164.2 58.13 149.95 58.5 150.2 69.13 164.2 69.13 164.2 93.13 66.2 93.13"/><polygon class="cls-2" points="65.2 103.13 164.2 103.13 185.45 146.13 46.2 146.13 65.2 103.13"/><line class="cls-2" x1="75.2" y1="112.12" x2="89.2" y2="112.12"/><line class="cls-2" x1="69.2" y1="123.12" x2="83.2" y2="123.12"/><line class="cls-2" x1="63.2" y1="135.12" x2="77.2" y2="135.12"/><line class="cls-2" x1="98.2" y1="112.12" x2="112.2" y2="112.12"/><line class="cls-2" x1="97.2" y1="123.12" x2="111.2" y2="123.12"/><line class="cls-2" x1="95.2" y1="135.12" x2="109.2" y2="135.12"/><line class="cls-2" x1="120.2" y1="112.12" x2="134.2" y2="112.12"/><line class="cls-2" x1="122.2" y1="123.12" x2="136.2" y2="123.12"/><line class="cls-2" x1="148.2" y1="123.12" x2="162.2" y2="123.12"/><line class="cls-2" x1="143.2" y1="112.12" x2="157.2" y2="112.12"/><line class="cls-2" x1="124.2" y1="135.12" x2="138.2" y2="135.12"/><line class="cls-2" x1="154.2" y1="135.12" x2="168.2" y2="135.12"/><line class="cls-2" x1="109.2" y1="166.12" x2="123.2" y2="166.12"/></g></g></svg>