<svg xmlns="http://www.w3.org/2000/svg" viewBox="0 0 230.79 230.79"><defs><style>.cls-1{fill:#f60;}.cls-2{fill:none;stroke:#fff;stroke-miterlimit:10;stroke-width:7px;}.cls-3{fill:#fff;}</style></defs><title>licence-icon</title><g id="Capa_2" data-name="Capa 2"><g id="Capa_3" data-name="Capa 3"><circle class="cls-1" cx="115.4" cy="115.4" r="115.4"/><path class="cls-2" d="M55.7,66l59.8-18.75,59.2,18.58v57.33s.69,49-57.18,65.34c-1.36.38-4.43-1-5.7-1.4a83.55,83.55,0,0,1-14.28-5.74,79.83,79.83,0,0,1-34.17-33.09c-5-9.31-7.69-18-7.67-28.61q0-10.74,0-21.48C55.7,95.72,54.21,66.42,55.7,66Z"/><polygon class="cls-3" points="114.99 74.88 103.87 98 77.7 102.31 96.34 120.38 91.97 146.47 114.99 133.98 138.22 146.47 133.24 120.6 152.2 101.86 126.77 99.19 114.99 74.88"/></g></g></svg>