<svg xmlns="http://www.w3.org/2000/svg" viewBox="0 0 230.79 230.79"><defs><style>.cls-1{fill:#f60;}.cls-2,.cls-3{fill:none;stroke:#fff;stroke-miterlimit:10;}.cls-2{stroke-width:7px;}.cls-3{stroke-width:6px;}</style></defs><title>reports-icon</title><g id="Capa_2" data-name="Capa 2"><g id="Capa_3" data-name="Capa 3"><circle class="cls-1" cx="115.4" cy="115.4" r="115.4"/><polyline class="cls-2" points="159.2 172.63 63.7 172.63 63.7 45.63 135.2 45.63 161.7 72.13 161.7 134.13"/><polyline class="cls-2" points="159.2 74.63 135.7 74.63 135.7 49.13"/><line class="cls-2" x1="76.2" y1="71.62" x2="119.2" y2="71.62"/><line class="cls-2" x1="76.2" y1="58.62" x2="119.2" y2="58.62"/><line class="cls-2" x1="106.7" y1="139.12" x2="106.7" y2="126.12"/><line class="cls-2" x1="118.7" y1="139.12" x2="118.7" y2="117.12"/><line class="cls-2" x1="131.7" y1="139.12" x2="131.7" y2="109.12"/><circle class="cls-3" cx="119.57" cy="123.75" r="30.12"/><polyline class="cls-3" points="147.7 139.13 153.86 143.63 156.2 140.13 188.53 163.79 179.2 176.13 147.7 152.29 151.7 146.88 145.95 142.44"/></g></g></svg>