<svg xmlns="http://www.w3.org/2000/svg" viewBox="0 0 230.79 230.79"><defs><style>.cls-1{fill:#f60;}.cls-2{fill:none;stroke:#fff;stroke-miterlimit:10;stroke-width:7px;}</style></defs><title>settings-icon</title><g id="Capa_2" data-name="Capa 2"><g id="Capa_3" data-name="Capa 3"><circle class="cls-1" cx="115.4" cy="115.4" r="115.4"/><polygon class="cls-2" points="138.79 155.22 126.95 159.03 123.2 176.85 103.2 176.85 100.7 157.85 92.95 154.85 79.45 165.85 64.7 151.35 73.7 135.35 69.7 126.35 50.7 122.35 50.7 102.35 68.7 98.1 72.95 88.1 63.2 73.1 79.45 58.6 94.57 70.1 102.95 68.22 104.95 48.85 126.2 48.85 128.95 67.6 137.2 71.35 151.95 59.85 166.2 73.35 156.95 91.35 161.07 98.1 179.7 101.6 179.7 123.35 161.45 127.35 157.95 136.85 166.95 151.35 152.95 165.35 138.79 155.22"/><circle class="cls-2" cx="116.32" cy="112.97" r="21.88"/></g></g></svg>