<svg xmlns="http://www.w3.org/2000/svg" viewBox="0 0 230.79 230.79"><defs><style>.cls-1{fill:#f60;}.cls-2{fill:none;stroke:#fff;stroke-miterlimit:10;stroke-width:5px;}.cls-3{fill:#fff;}</style></defs><title>xtras-icon</title><g id="Capa_2" data-name="Capa 2"><g id="Capa_3" data-name="Capa 3"><circle class="cls-1" cx="115.4" cy="115.4" r="115.4"/><path class="cls-2" d="M109.4,107.63l18-7.13s37.35,8.81,48.26-13.43c0,0,15.1-30.63-29.79-36.5-20.15-2.64-43.1,6.27-39.45,30.83,0,0,1,9.3,8.1,12.23Z"/><circle class="cls-3" cx="126.28" cy="75.83" r="4.13"/><circle class="cls-3" cx="141.37" cy="76.91" r="4.13"/><circle class="cls-3" cx="156.46" cy="76.91" r="4.13"/><polygon class="cls-2" points="62.82 123.13 74.53 178.13 86.2 162.46 106.08 191.79 113.28 186.46 92.53 157.46 113.28 152.13 62.82 123.13"/><line class="cls-2" x1="49.28" y1="111.07" x2="37.53" y2="102.12"/><line class="cls-2" x1="58.86" y1="91.46" x2="60.86" y2="104.46"/><line class="cls-2" x1="82.2" y1="96.46" x2="74.2" y2="107.46"/><line class="cls-2" x1="94.86" y1="117.12" x2="79.86" y2="118.46"/><line class="cls-2" x1="44.53" y1="147.46" x2="51.53" y2="135.79"/><line class="cls-2" x1="44.72" y1="125.59" x2="30.09" y2="127.61"/></g></g></svg>